<?xml version="1.0" encoding="UTF-8" standalone="no"?>
<!-- Created with Inkscape (http://www.inkscape.org/) -->

<svg
   width="200mm"
   height="200mm"
   viewBox="0 0 200 200"
   version="1.1"
   id="svg1"
   inkscape:version="1.4.3 (0d15f75042, 2025-12-25)"
   sodipodi:docname="logo_dron_inkscape_mensiR.svg"
   inkscape:export-filename="skola/informatika/logo_dron.svg"
   inkscape:export-xdpi="63.5"
   inkscape:export-ydpi="63.5"
   xmlns:inkscape="http://www.inkscape.org/namespaces/inkscape"
   xmlns:sodipodi="http://sodipodi.sourceforge.net/DTD/sodipodi-0.dtd"
   xmlns="http://www.w3.org/2000/svg"
   xmlns:svg="http://www.w3.org/2000/svg">
  <sodipodi:namedview
     id="namedview1"
     pagecolor="#ffffff"
     bordercolor="#000000"
     borderopacity="0.25"
     inkscape:showpageshadow="2"
     inkscape:pageopacity="0.0"
     inkscape:pagecheckerboard="0"
     inkscape:deskcolor="#d1d1d1"
     inkscape:document-units="mm"
     showgrid="true"
     showguides="true"
     inkscape:zoom="0.5"
     inkscape:cx="236"
     inkscape:cy="503"
     inkscape:window-width="1366"
     inkscape:window-height="740"
     inkscape:window-x="0"
     inkscape:window-y="0"
     inkscape:window-maximized="1"
     inkscape:current-layer="g21">
    <inkscape:grid
       id="grid1"
       units="mm"
       originx="0"
       originy="0"
       spacingx="0.99999999"
       spacingy="0.99999999"
       empcolor="#0099e5"
       empopacity="0.30196078"
       color="#0099e5"
       opacity="0.14901961"
       empspacing="5"
       enabled="false"
       visible="false" />
    <inkscape:grid
       type="axonomgrid"
       id="grid2"
       units="mm"
       originx="0"
       originy="0"
       spacingx="0.99999999"
       spacingy="0.99999999"
       empcolor="#0099e5"
       empopacity="0.30196078"
       color="#0099e5"
       opacity="0.14901961"
       empspacing="5"
       dotted="false"
       gridanglex="30"
       gridanglez="30"
       enabled="false"
       visible="false" />
    <inkscape:grid
       id="grid3"
       units="mm"
       originx="0"
       originy="0"
       spacingx="0.99999999"
       spacingy="0.99999999"
       empcolor="#0099e5"
       empopacity="0.30196078"
       color="#0099e5"
       opacity="0.14901961"
       empspacing="5"
       enabled="false"
       visible="false" />
    <inkscape:grid
       type="modular"
       id="grid4"
       units="mm"
       originx="0"
       originy="0"
       spacingx="40"
       spacingy="40"
       empcolor="#0047cb"
       empopacity="0.30196078"
       color="#0099e5"
       opacity="0.14901961"
       empspacing="0"
       marginx="0"
       marginy="0"
       gapx="9.9999999"
       gapy="9.9999999"
       enabled="false"
       visible="false" />
    <inkscape:grid
       id="grid5"
       units="mm"
       originx="0"
       originy="0"
       spacingx="0.99999999"
       spacingy="0.99999999"
       empcolor="#0099e5"
       empopacity="0.30196078"
       color="#0099e5"
       opacity="0.14901961"
       empspacing="5"
       enabled="false"
       visible="true" />
    <inkscape:grid
       type="axonomgrid"
       id="grid6"
       units="mm"
       originx="0"
       originy="0"
       spacingx="0.99999999"
       spacingy="0.99999999"
       empcolor="#0099e5"
       empopacity="0.30196078"
       color="#0099e5"
       opacity="0.14901961"
       empspacing="5"
       dotted="false"
       gridanglex="30"
       gridanglez="30"
       enabled="false"
       visible="true" />
    <inkscape:grid
       id="grid7"
       units="mm"
       originx="0"
       originy="0"
       spacingx="0.99999999"
       spacingy="0.99999999"
       empcolor="#0099e5"
       empopacity="0.30196078"
       color="#0099e5"
       opacity="0.14901961"
       empspacing="5"
       enabled="false"
       visible="true" />
    <inkscape:grid
       type="modular"
       id="grid8"
       units="mm"
       originx="0"
       originy="0"
       spacingx="40"
       spacingy="40"
       empcolor="#0047cb"
       empopacity="0.30196078"
       color="#0099e5"
       opacity="0.14901961"
       empspacing="0"
       marginx="0"
       marginy="0"
       gapx="9.9999999"
       gapy="9.9999999"
       enabled="false"
       visible="true" />
    <inkscape:grid
       type="axonomgrid"
       id="grid9"
       units="mm"
       originx="0"
       originy="0"
       spacingx="0.99999999"
       spacingy="0.99999999"
       empcolor="#0099e5"
       empopacity="0.30196078"
       color="#0099e5"
       opacity="0.14901961"
       empspacing="5"
       dotted="false"
       gridanglex="30"
       gridanglez="30"
       enabled="false"
       visible="true" />
    <inkscape:grid
       id="grid10"
       units="mm"
       originx="0"
       originy="0"
       spacingx="0.99999999"
       spacingy="0.99999999"
       empcolor="#0099e5"
       empopacity="0.30196078"
       color="#0099e5"
       opacity="0.14901961"
       empspacing="5"
       enabled="false"
       visible="false" />
    <inkscape:grid
       type="axonomgrid"
       id="grid11"
       units="mm"
       originx="0"
       originy="0"
       spacingx="0.99999999"
       spacingy="0.99999999"
       empcolor="#0099e5"
       empopacity="0.30196078"
       color="#0099e5"
       opacity="0.14901961"
       empspacing="5"
       dotted="false"
       gridanglex="30"
       gridanglez="30"
       enabled="false"
       visible="false" />
    <inkscape:grid
       type="modular"
       id="grid12"
       units="mm"
       originx="0"
       originy="0"
       spacingx="40"
       spacingy="40"
       empcolor="#0047cb"
       empopacity="0.30196078"
       color="#0099e5"
       opacity="0.14901961"
       empspacing="0"
       marginx="0"
       marginy="0"
       gapx="9.9999999"
       gapy="9.9999999"
       enabled="false"
       visible="false" />
    <inkscape:grid
       id="grid13"
       units="mm"
       originx="0"
       originy="0"
       spacingx="0.99999999"
       spacingy="0.99999999"
       empcolor="#0099e5"
       empopacity="0.30196078"
       color="#0099e5"
       opacity="0.14901961"
       empspacing="5"
       enabled="false"
       visible="true" />
  </sodipodi:namedview>
  <defs
     id="defs1">
    <inkscape:path-effect
       effect="fillet_chamfer"
       id="path-effect26"
       is_visible="true"
       lpeversion="1"
       nodesatellites_param="F,0,0,1,0,2.6458333,0,1 @ F,0,0,1,0,2.6458333,0,1 @ F,0,0,1,0,2.6458333,0,1 @ F,0,0,1,0,2.6458333,0,1 @ F,0,0,1,0,2.6458333,0,1 @ F,0,0,1,0,2.6458333,0,1 @ F,0,0,1,0,2.6458333,0,1 @ F,0,0,1,0,2.6458333,0,1 | F,0,0,1,0,2.6458333,0,1 @ F,0,0,1,0,2.6458333,0,1 @ F,0,0,1,0,2.6458333,0,1 @ F,0,0,1,0,2.6458333,0,1 @ F,0,0,1,0,2.6458333,0,1 @ F,0,0,1,0,2.6458333,0,1"
       radius="10"
       unit="px"
       method="auto"
       mode="F"
       chamfer_steps="1"
       flexible="false"
       use_knot_distance="true"
       apply_no_radius="true"
       apply_with_radius="true"
       only_selected="false"
       hide_knots="false" />
    <inkscape:path-effect
       effect="fillet_chamfer"
       id="path-effect25"
       is_visible="true"
       lpeversion="1"
       nodesatellites_param="F,0,0,1,0,2.6458333,0,1 @ F,0,0,1,0,2.6458333,0,1 @ F,0,0,1,0,2.6458333,0,1 @ F,0,0,1,0,2.6458333,0,1 @ F,0,0,1,0,1.3229167,0,1 @ F,0,0,1,0,2.6458333,0,1 @ F,0,0,1,0,2.6458333,0,1 @ F,0,0,1,0,0,0,1 @ F,0,0,1,0,2.6458333,0,1 @ F,0,0,1,0,2.6458333,0,1 @ F,0,0,1,0,2.6458333,0,1 @ F,0,0,1,0,2.6458333,0,1 @ F,0,0,1,0,1.3229167,0,1"
       radius="10"
       unit="px"
       method="auto"
       mode="F"
       chamfer_steps="1"
       flexible="false"
       use_knot_distance="true"
       apply_no_radius="true"
       apply_with_radius="true"
       only_selected="false"
       hide_knots="false" />
    <inkscape:path-effect
       effect="fillet_chamfer"
       id="path-effect24"
       is_visible="true"
       lpeversion="1"
       nodesatellites_param="F,0,0,1,0,1.3229167,0,1 @ F,0,0,1,0,1.3229167,0,1 @ F,0,0,1,0,1.3229167,0,1 @ F,0,0,1,0,1.3229167,0,1 @ F,0,0,1,0,1.3229167,0,1 @ F,0,0,1,0,1.3229167,0,1 @ F,0,0,1,0,1.3229167,0,1 @ F,0,0,1,0,1.3229167,0,1 @ F,0,0,1,0,1.3229167,0,1 @ F,0,0,1,0,1.3229167,0,1 @ F,0,0,1,0,1.3229167,0,1 @ F,0,0,1,0,1.3229167,0,1 @ F,0,0,1,0,1.3229167,0,1 | F,0,0,1,0,1.3229167,0,1 @ F,0,0,1,0,1.3229167,0,1 @ F,0,0,1,0,1.3229167,0,1 @ F,0,0,1,0,1.3229167,0,1 @ F,0,0,1,0,1.3229167,0,1 @ F,0,0,1,0,1.3229167,0,1 @ F,0,0,1,0,1.3229167,0,1 @ F,0,0,1,0,1.3229167,0,1 @ F,0,0,1,0,1.3229167,0,1 @ F,0,0,1,0,1.3229167,0,1 @ F,0,0,1,0,1.3229167,0,1 @ F,0,0,1,0,1.3229167,0,1 @ F,0,0,1,0,1.3229167,0,1"
       radius="5"
       unit="px"
       method="auto"
       mode="F"
       chamfer_steps="1"
       flexible="false"
       use_knot_distance="true"
       apply_no_radius="true"
       apply_with_radius="true"
       only_selected="false"
       hide_knots="false" />
    <inkscape:path-effect
       effect="join_type"
       id="path-effect21"
       is_visible="true"
       lpeversion="1"
       linecap_type="butt"
       line_width="0"
       linejoin_type="extrp_arc"
       miter_limit="100"
       attempt_force_join="true" />
    <inkscape:path-effect
       effect="fillet_chamfer"
       id="path-effect4"
       is_visible="true"
       lpeversion="1"
       nodesatellites_param="F,0,0,1,0,2.6458333,0,1 @ F,0,0,1,0,2.6458333,0,1 @ F,0,0,1,0,2.6458333,0,1 @ F,0,0,1,0,2.6458333,0,1"
       radius="10"
       unit="px"
       method="auto"
       mode="F"
       chamfer_steps="1"
       flexible="false"
       use_knot_distance="true"
       apply_no_radius="true"
       apply_with_radius="true"
       only_selected="false"
       hide_knots="false" />
    <inkscape:path-effect
       effect="fillet_chamfer"
       id="path-effect3"
       is_visible="true"
       lpeversion="1"
       nodesatellites_param="F,0,0,1,0,2.6458333,0,1 @ F,0,0,1,0,2.6458333,0,1 @ F,0,0,1,0,2.6458333,0,1 @ F,0,0,1,0,2.6458333,0,1"
       radius="10"
       unit="px"
       method="auto"
       mode="F"
       chamfer_steps="1"
       flexible="false"
       use_knot_distance="true"
       apply_no_radius="true"
       apply_with_radius="true"
       only_selected="false"
       hide_knots="false" />
    <inkscape:path-effect
       effect="fillet_chamfer"
       id="path-effect2"
       is_visible="true"
       lpeversion="1"
       nodesatellites_param="F,0,0,1,0,2.6458333,0,1 @ F,0,0,1,0,2.6458333,0,1 @ F,0,0,1,0,2.6458333,0,1 @ F,0,0,1,0,2.6458333,0,1"
       radius="10"
       unit="px"
       method="auto"
       mode="F"
       chamfer_steps="1"
       flexible="false"
       use_knot_distance="true"
       apply_no_radius="true"
       apply_with_radius="true"
       only_selected="false"
       hide_knots="false" />
    <inkscape:path-effect
       effect="fillet_chamfer"
       id="path-effect22"
       is_visible="true"
       lpeversion="1"
       nodesatellites_param="F,0,0,1,0,3.96875,0,1 @ F,0,0,1,0,3.96875,0,1 @ F,0,1,1,0,2.6458333,0,1 @ F,0,0,1,0,3.96875,0,1"
       radius="10"
       unit="px"
       method="auto"
       mode="F"
       chamfer_steps="1"
       flexible="false"
       use_knot_distance="true"
       apply_no_radius="true"
       apply_with_radius="true"
       only_selected="true"
       hide_knots="false" />
    <inkscape:path-effect
       effect="fillet_chamfer"
       id="path-effect18"
       is_visible="true"
       lpeversion="1"
       nodesatellites_param="F,0,0,1,0,7.9426613,0,1 @ F,0,0,1,0,7.9426613,0,1 @ F,0,0,1,0,7.9426613,0,1 @ F,0,0,1,0,7.9426613,0,1"
       radius="5"
       unit="mm"
       method="auto"
       mode="F"
       chamfer_steps="1"
       flexible="false"
       use_knot_distance="true"
       apply_no_radius="true"
       apply_with_radius="true"
       only_selected="false"
       hide_knots="false" />
    <inkscape:path-effect
       effect="fillet_chamfer"
       id="path-effect17"
       is_visible="true"
       lpeversion="1"
       nodesatellites_param="F,0,0,1,0,3.96875,0,1 @ F,0,0,1,0,3.96875,0,1 @ F,0,0,1,0,3.96875,0,1 @ F,0,0,1,0,3.96875,0,1"
       radius="5"
       unit="px"
       method="auto"
       mode="F"
       chamfer_steps="1"
       flexible="false"
       use_knot_distance="true"
       apply_no_radius="true"
       apply_with_radius="true"
       only_selected="true"
       hide_knots="false" />
    <inkscape:path-effect
       effect="fillet_chamfer"
       id="path-effect16"
       is_visible="true"
       lpeversion="1"
       nodesatellites_param="F,0,0,1,0,0,0,1 @ F,0,0,1,0,0,0,1 @ F,0,0,1,0,2.3445493,0,1 @ F,0,0,1,0,0,0,1"
       radius="0"
       unit="px"
       method="auto"
       mode="F"
       chamfer_steps="1"
       flexible="false"
       use_knot_distance="true"
       apply_no_radius="true"
       apply_with_radius="true"
       only_selected="false"
       hide_knots="false" />
    <inkscape:path-effect
       effect="fillet_chamfer"
       id="path-effect22-7"
       is_visible="true"
       lpeversion="1"
       nodesatellites_param="F,0,0,1,0,3.96875,0,1 @ F,0,0,1,0,3.96875,0,1 @ F,0,1,1,0,2.6458333,0,1 @ F,0,0,1,0,3.96875,0,1"
       radius="10"
       unit="px"
       method="auto"
       mode="F"
       chamfer_steps="1"
       flexible="false"
       use_knot_distance="true"
       apply_no_radius="true"
       apply_with_radius="true"
       only_selected="true"
       hide_knots="false" />
    <inkscape:path-effect
       effect="fillet_chamfer"
       id="path-effect22-9"
       is_visible="true"
       lpeversion="1"
       nodesatellites_param="F,0,0,1,0,3.96875,0,1 @ F,0,0,1,0,3.96875,0,1 @ F,0,1,1,0,2.6458333,0,1 @ F,0,0,1,0,3.96875,0,1"
       radius="10"
       unit="px"
       method="auto"
       mode="F"
       chamfer_steps="1"
       flexible="false"
       use_knot_distance="true"
       apply_no_radius="true"
       apply_with_radius="true"
       only_selected="true"
       hide_knots="false" />
    <inkscape:path-effect
       effect="fillet_chamfer"
       id="path-effect22-9-3"
       is_visible="true"
       lpeversion="1"
       nodesatellites_param="F,0,0,1,0,3.96875,0,1 @ F,0,0,1,0,3.96875,0,1 @ F,0,1,1,0,2.6458333,0,1 @ F,0,0,1,0,3.96875,0,1"
       radius="10"
       unit="px"
       method="auto"
       mode="F"
       chamfer_steps="1"
       flexible="false"
       use_knot_distance="true"
       apply_no_radius="true"
       apply_with_radius="true"
       only_selected="true"
       hide_knots="false" />
    <inkscape:path-effect
       effect="fillet_chamfer"
       id="path-effect2-7"
       is_visible="true"
       lpeversion="1"
       nodesatellites_param="F,0,0,1,0,2.6458333,0,1 @ F,0,0,1,0,2.6458333,0,1 @ F,0,0,1,0,2.6458333,0,1 @ F,0,0,1,0,2.6458333,0,1"
       radius="10"
       unit="px"
       method="auto"
       mode="F"
       chamfer_steps="1"
       flexible="false"
       use_knot_distance="true"
       apply_no_radius="true"
       apply_with_radius="true"
       only_selected="false"
       hide_knots="false" />
    <inkscape:path-effect
       effect="fillet_chamfer"
       id="path-effect4-5"
       is_visible="true"
       lpeversion="1"
       nodesatellites_param="F,0,0,1,0,2.6458333,0,1 @ F,0,0,1,0,2.6458333,0,1 @ F,0,0,1,0,2.6458333,0,1 @ F,0,0,1,0,2.6458333,0,1"
       radius="10"
       unit="px"
       method="auto"
       mode="F"
       chamfer_steps="1"
       flexible="false"
       use_knot_distance="true"
       apply_no_radius="true"
       apply_with_radius="true"
       only_selected="false"
       hide_knots="false" />
    <inkscape:path-effect
       effect="fillet_chamfer"
       id="path-effect3-9"
       is_visible="true"
       lpeversion="1"
       nodesatellites_param="F,0,0,1,0,2.6458333,0,1 @ F,0,0,1,0,2.6458333,0,1 @ F,0,0,1,0,2.6458333,0,1 @ F,0,0,1,0,2.6458333,0,1"
       radius="10"
       unit="px"
       method="auto"
       mode="F"
       chamfer_steps="1"
       flexible="false"
       use_knot_distance="true"
       apply_no_radius="true"
       apply_with_radius="true"
       only_selected="false"
       hide_knots="false" />
    <inkscape:path-effect
       effect="fillet_chamfer"
       id="path-effect2-7-5"
       is_visible="true"
       lpeversion="1"
       nodesatellites_param="F,0,0,1,0,2.6458333,0,1 @ F,0,0,1,0,2.6458333,0,1 @ F,0,0,1,0,2.6458333,0,1 @ F,0,0,1,0,2.6458333,0,1"
       radius="10"
       unit="px"
       method="auto"
       mode="F"
       chamfer_steps="1"
       flexible="false"
       use_knot_distance="true"
       apply_no_radius="true"
       apply_with_radius="true"
       only_selected="false"
       hide_knots="false" />
    <inkscape:path-effect
       effect="fillet_chamfer"
       id="path-effect4-5-0"
       is_visible="true"
       lpeversion="1"
       nodesatellites_param="F,0,0,1,0,2.6458333,0,1 @ F,0,0,1,0,2.6458333,0,1 @ F,0,0,1,0,2.6458333,0,1 @ F,0,0,1,0,2.6458333,0,1"
       radius="10"
       unit="px"
       method="auto"
       mode="F"
       chamfer_steps="1"
       flexible="false"
       use_knot_distance="true"
       apply_no_radius="true"
       apply_with_radius="true"
       only_selected="false"
       hide_knots="false" />
    <inkscape:path-effect
       effect="fillet_chamfer"
       id="path-effect3-9-3"
       is_visible="true"
       lpeversion="1"
       nodesatellites_param="F,0,0,1,0,2.6458333,0,1 @ F,0,0,1,0,2.6458333,0,1 @ F,0,0,1,0,2.6458333,0,1 @ F,0,0,1,0,2.6458333,0,1"
       radius="10"
       unit="px"
       method="auto"
       mode="F"
       chamfer_steps="1"
       flexible="false"
       use_knot_distance="true"
       apply_no_radius="true"
       apply_with_radius="true"
       only_selected="false"
       hide_knots="false" />
    <inkscape:path-effect
       effect="fill_between_many"
       method="bsplinespiro"
       autoreverse="false"
       close="false"
       join="false"
       linkedpaths="#text7,0,1"
       id="path-effect23"
       is_visible="true"
       lpeversion="0" />
  </defs>
  <g
     inkscape:label="Vrstva 1"
     inkscape:groupmode="layer"
     id="layer1">
    <g
       id="g5"
       inkscape:label="seda">
      <path
         id="rect2-6-8-0"
         style="fill:#747474;fill-opacity:0.98613244;stroke:#000000;stroke-width:0;stroke-linecap:round;stroke-linejoin:round;stroke-miterlimit:0;stroke-dasharray:none;paint-order:stroke fill markers"
         d="M 25.594114,80.389863 15.135336,102.40541 a 1.6722813,1.6722813 57.705339 0 0 1.510497,2.38986 h 56.978944 a 4.1861594,4.1861594 147.70535 0 0 3.78117,-2.38986 L 87.864733,80.389863 A 1.6722807,1.6722807 57.705348 0 0 86.354237,78 H 29.375283 a 4.186158,4.186158 147.70534 0 0 -3.781169,2.389863 z"
         inkscape:path-effect="#path-effect2-7-5"
         inkscape:original-d="M 26.72945,78 14,104.79527 H 76.27061 L 89.00007,78 Z"
         transform="rotate(62.345883,99.999998,100.00001)"
         inkscape:label="seda_vrtule2" />
      <path
         id="rect2-6-2-7-3"
         style="fill:#747474;fill-opacity:0.98613244;stroke:#000000;stroke-width:0;stroke-linecap:round;stroke-linejoin:round;stroke-miterlimit:0;stroke-dasharray:none;paint-order:stroke fill markers"
         d="m 174.40589,119.61014 10.45877,-22.015555 a 1.6722815,1.6722815 57.705336 0 0 -1.51049,-2.389863 h -56.97894 a 4.1861589,4.1861589 147.70534 0 0 -3.78117,2.389863 L 112.13528,119.61014 A 1.672281,1.672281 57.705345 0 0 113.64577,122 h 56.97895 a 4.1861575,4.1861575 147.70534 0 0 3.78117,-2.38986 z"
         inkscape:path-effect="#path-effect3-9-3"
         inkscape:original-d="M 173.27055,122 186,95.204722 H 123.7294 L 110.99994,122 Z"
         transform="rotate(62.345883,99.999998,100.00001)"
         inkscape:label="seda_vrtule1" />
    </g>
    <circle
       style="display:none;opacity:1;fill:#c6c6c6;fill-opacity:1;stroke:#3e3e3e;stroke-width:10;stroke-linecap:round;stroke-linejoin:round;stroke-miterlimit:0;stroke-dasharray:none;stroke-opacity:1;paint-order:stroke fill markers"
       id="path7"
       cx="100"
       cy="100"
       r="92.929169"
       inkscape:label="ohraniceni" />
    <g
       id="g6"
       inkscape:label="hneda"
       style="display:inline;stroke:#3e3e3e;stroke-opacity:1">
      <path
         id="rect2-6-8"
         style="fill:#373737;fill-opacity:0.986132;stroke:#3e3e3e;stroke-width:0;stroke-linecap:round;stroke-linejoin:round;stroke-miterlimit:0;stroke-dasharray:none;stroke-opacity:1;paint-order:stroke fill markers"
         d="M 25.594114,80.389863 15.135336,102.40541 a 1.6722813,1.6722813 57.705339 0 0 1.510497,2.38986 h 56.978944 a 4.1861594,4.1861594 147.70535 0 0 3.78117,-2.38986 L 87.864733,80.389863 A 1.6722807,1.6722807 57.705348 0 0 86.354237,78 H 29.375283 a 4.186158,4.186158 147.70534 0 0 -3.781169,2.389863 z"
         inkscape:path-effect="#path-effect2-7"
         inkscape:original-d="M 26.72945,78 14,104.79527 H 76.27061 L 89.00007,78 Z"
         transform="rotate(47.345883,99.999995,100.00001)"
         inkscape:label="hneda_vrtule2" />
      <path
         id="rect2-6-2-7"
         style="fill:#373737;fill-opacity:0.986132;stroke:#3e3e3e;stroke-width:0;stroke-linecap:round;stroke-linejoin:round;stroke-miterlimit:0;stroke-dasharray:none;stroke-opacity:1;paint-order:stroke fill markers"
         d="m 174.40589,119.61014 10.45877,-22.015555 a 1.6722815,1.6722815 57.705336 0 0 -1.51049,-2.389863 h -56.97894 a 4.1861589,4.1861589 147.70534 0 0 -3.78117,2.389863 L 112.13528,119.61014 A 1.672281,1.672281 57.705345 0 0 113.64577,122 h 56.97895 a 4.1861575,4.1861575 147.70534 0 0 3.78117,-2.38986 z"
         inkscape:path-effect="#path-effect3-9"
         inkscape:original-d="M 173.27055,122 186,95.204722 H 123.7294 L 110.99994,122 Z"
         transform="rotate(47.345883,99.999995,100.00001)"
         inkscape:label="hneda_vrtule1" />
    </g>
    <g
       id="g4"
       inkscape:label="cerna">
      <path
         id="rect2-6"
         style="fill:#000000;fill-opacity:0.986132;stroke:#000000;stroke-width:0;stroke-linecap:round;stroke-linejoin:round;stroke-miterlimit:0;stroke-dasharray:none;paint-order:stroke fill markers"
         d="M 25.594114,80.389863 15.135336,102.40541 a 1.6722813,1.6722813 57.705339 0 0 1.510497,2.38986 h 56.978944 a 4.1861594,4.1861594 147.70535 0 0 3.78117,-2.38986 L 87.864733,80.389863 A 1.6722807,1.6722807 57.705348 0 0 86.354237,78 H 29.375283 a 4.186158,4.186158 147.70534 0 0 -3.781169,2.389863 z"
         inkscape:path-effect="#path-effect2"
         inkscape:original-d="M 26.72945,78 14,104.79527 H 76.27061 L 89.00007,78 Z"
         transform="rotate(32.345882,99.999999,100)"
         inkscape:label="cerna_vrtule2" />
      <path
         style="fill:#000000;fill-opacity:0.986132;stroke:#000000;stroke-width:0;stroke-linecap:round;stroke-linejoin:round;stroke-miterlimit:0;stroke-dasharray:none;paint-order:stroke fill markers"
         id="rect1-1-3"
         width="30.021959"
         height="30.021959"
         x="118.22482"
         y="32.404415"
         transform="rotate(57.75647,68.743146,43.208334)"
         ry="0"
         sodipodi:type="rect"
         inkscape:label="cerny_stred"
         d="m 120.87066,32.404415 h 24.73029 a 2.6458333,2.6458333 45 0 1 2.64583,2.645833 v 24.730293 a 2.6458333,2.6458333 135 0 1 -2.64583,2.645833 h -24.73029 a 2.6458333,2.6458333 45 0 1 -2.64584,-2.645833 V 35.050248 a 2.6458333,2.6458333 135 0 1 2.64584,-2.645833 z"
         inkscape:path-effect="#path-effect4" />
      <path
         id="rect2-6-2"
         style="fill:#000000;fill-opacity:0.986132;stroke:#000000;stroke-width:0;stroke-linecap:round;stroke-linejoin:round;stroke-miterlimit:0;stroke-dasharray:none;paint-order:stroke fill markers"
         d="m 174.40589,119.61014 10.45877,-22.015555 a 1.6722815,1.6722815 57.705336 0 0 -1.51049,-2.389863 h -56.97894 a 4.1861589,4.1861589 147.70534 0 0 -3.78117,2.389863 L 112.13528,119.61014 A 1.672281,1.672281 57.705345 0 0 113.64577,122 h 56.97895 a 4.1861575,4.1861575 147.70534 0 0 3.78117,-2.38986 z"
         inkscape:path-effect="#path-effect3"
         inkscape:original-d="M 173.27055,122 186,95.204722 H 123.7294 L 110.99994,122 Z"
         transform="rotate(32.345882,99.999999,100)"
         inkscape:label="cerna_vrtule1" />
    </g>
    <g
       id="g21"
       inkscape:label="VD"
       style="display:inline">
      <path
         inkscape:original-d="M 0,0"
         inkscape:path-effect="#path-effect23;#path-effect25"
         d="M 66.869566,116.82997 55.71572,149.60299 a 3.6953404,3.6953404 144.39765 0 1 -3.498289,2.50475 h -3.439589 a 3.690443,3.690443 35.638325 0 1 -3.495143,-2.50581 l -11.107221,-32.7709 a 1.8969088,1.8969088 125.63833 0 1 1.796523,-2.50581 h 4.127505 a 1.8042226,1.8042226 36.250122 0 1 1.72072,1.26169 l 5.897428,18.70453 c 0.439402,1.39362 1.095785,3.4848 1.37769,4.69296 0.728612,2.79695 0.787639,3.03735 0.846667,3.28084 0.02226,0.089 0.04397,0.17698 0.06513,0.26383 0.345809,1.41909 0.684714,1.41972 0.990877,-0.009 0.03021,-0.14095 0.329842,-1.40761 0.707289,-2.81924 0.105947,-0.39623 0.450274,-1.68936 0.776701,-2.88625 l 6.743253,-21.22876 a 1.8082745,1.8082745 143.81115 0 1 1.723418,-1.26084 h 4.127505 a 1.8943949,1.8943949 54.397648 0 1 1.793377,2.50475 z"
         id="path23"
         style="fill:#000000" />
      <path
         style="font-weight:bold;font-size:52.9167px;-inkscape-font-specification:'sans-serif Bold';fill:#3e3e3e;fill-rule:nonzero;stroke:none;stroke-width:0;stroke-linecap:round;stroke-linejoin:round;stroke-miterlimit:0;paint-order:stroke fill markers"
         d="m 53.540347,152.10774 h -6.085421 a 1.8452216,1.8452216 35.638325 0 1 -1.747572,-1.25291 l -11.956531,-35.2767 a 0.94845444,0.94845444 125.63833 0 1 0.898262,-1.25291 h 5.450421 a 1.8042226,1.8042226 36.250122 0 1 1.72072,1.26169 l 6.295232,19.96622 c 0.2197,0.69681 0.584225,1.82458 0.762752,2.5328 0.124785,0.49502 0.375336,1.46927 0.560024,2.17617 0.06175,0.23634 0.123496,0.47606 0.185244,0.71915 0.179872,0.70814 0.466141,1.85785 0.618788,2.57232 0.01926,0.0901 0.03778,0.17881 0.05557,0.26601 0.145985,0.71575 0.3064,0.716 0.4396,-0.002 0.0156,-0.0841 0.03175,-0.1696 0.04844,-0.25646 0.137908,-0.71746 0.40605,-1.87141 0.585922,-2.57955 0.06175,-0.24309 0.123496,-0.48281 0.185244,-0.71915 0.184688,-0.7069 0.49525,-1.85006 0.684495,-2.55575 0.132096,-0.49258 0.419789,-1.45603 0.64098,-2.15237 l 6.342752,-19.96792 a 1.8082745,1.8082745 143.81115 0 1 1.723418,-1.26084 h 5.450421 a 0.94719747,0.94719747 54.397648 0 1 0.896689,1.25237 l -12.006302,35.27778 a 1.8476703,1.8476703 144.39765 0 1 -1.749145,1.25237 z m 5.684919,-36.52168 -6.342752,19.96792 c -0.221191,0.69634 -0.555516,1.83249 -0.744341,2.53829 -0.131802,0.49266 -0.396446,1.46293 -0.581134,2.16983 -0.06175,0.23634 -0.123496,0.47606 -0.185244,0.71915 -0.179872,0.70814 -0.448015,1.86209 -0.585924,2.57957 -0.0167,0.0868 -0.03284,0.17234 -0.04844,0.25645 -0.133199,0.71831 -0.293614,0.71805 -0.439602,0.002 -0.01778,-0.0872 -0.03631,-0.17586 -0.05557,-0.26601 -0.152646,-0.71445 -0.438912,-1.86415 -0.618784,-2.57229 -0.06175,-0.24309 -0.123496,-0.48281 -0.185244,-0.71915 -0.184688,-0.7069 -0.472024,-1.85599 -0.659787,-2.56206 -0.131164,-0.49323 -0.443289,-1.4501 -0.662989,-2.14691 l -6.295232,-19.96622 a 1.8042226,1.8042226 36.250122 0 0 -1.72072,-1.26169 h -5.450421 a 0.94845444,0.94845444 125.63833 0 0 -0.898262,1.25291 l 11.956531,35.2767 a 1.8452216,1.8452216 35.638325 0 0 1.747572,1.25291 h 6.085421 a 1.8476703,1.8476703 144.39765 0 0 1.749145,-1.25237 l 12.006302,-35.27778 a 0.94719747,0.94719747 54.397648 0 0 -0.896689,-1.25237 h -5.450421 a 1.8082745,1.8082745 143.81115 0 0 -1.723418,1.26084 z"
         id="text7"
         inkscape:label="v"
         aria-label="V"
         inkscape:path-effect="#path-effect21;#path-effect24"
         inkscape:original-d="M 67.722022,114.32522 54.863264,152.10774 H 46.132009 L 33.326168,114.32522 h 8.096255 l 7.090838,22.4896 q 0.211666,0.58208 0.582083,2.16958 0.423334,1.53459 0.846667,3.28084 0.423334,1.69333 0.582084,2.8575 0.15875,-1.16417 0.529167,-2.8575 0.423334,-1.74625 0.846667,-3.28084 0.423334,-1.5875 0.582084,-2.16958 l 7.143754,-22.4896 z"
         inkscape:linked-fill="path23" />
      <path
         style="font-weight:bold;font-size:52.9167px;-inkscape-font-specification:'sans-serif Bold';stroke:#3e3e3e;stroke-width:0;stroke-linecap:round;stroke-linejoin:round;stroke-miterlimit:0;paint-order:stroke fill markers"
         d="m 164.99799,68.791411 c -0.18083,2.13697 -0.58926,4.07108 -1.2253,5.802329 -0.50338,1.370165 -1.66306,3.456373 -2.57122,4.59915 -0.90543,1.139345 -1.95006,2.128491 -3.13391,2.967438 -1.19092,0.843966 -3.33875,1.880893 -4.72616,2.335868 -1.66821,0.547058 -3.48041,0.903678 -5.43661,1.069861 -1.45557,0.123654 -3.82738,0.108763 -5.28863,0.108763 h -6.24418 a 2.6458333,2.6458333 45 0 1 -2.64583,-2.645833 V 50.53813 a 2.6458333,2.6458333 135 0 1 2.64583,-2.645833 h 7.19668 c 1.46125,0 3.83324,-0.01576 5.28848,0.111465 3.6074,0.315374 6.65835,1.299981 9.15287,2.953821 1.21639,0.806449 2.96384,2.439045 3.83134,3.612276 1.75964,2.379785 2.80789,5.358633 3.14476,8.936542 0.13692,1.454287 0.13506,3.829392 0.0119,5.28501 z m -8.50273,-4.965801 c -0.18608,-1.598616 -0.5527,-2.984816 -1.09989,-4.158602 -0.61486,-1.318978 -2.24997,-3.122413 -3.51927,-3.833493 -0.94425,-0.528982 -2.0241,-0.899769 -3.23955,-1.11236 -1.43755,-0.251441 -3.81831,-0.21427 -5.27956,-0.21427 a 2.162798,2.162798 120.11379 0 0 -1.53459,2.645833 v 19.208765 a 2.6458333,2.6458333 45 0 0 2.64583,2.645833 c 0.40917,0 1.93443,0.03243 3.37732,-0.189372 5.11719,-0.7866 8.001,-4.023699 8.65145,-9.711297 0.16594,-1.451009 0.16711,-3.83039 -0.002,-5.281037 z"
         id="text7-5"
         inkscape:label="v"
         aria-label="D"
         inkscape:path-effect="#path-effect26"
         inkscape:original-d="m 165.10575,66.148558 q 0,6.508754 -2.43417,10.847923 -2.43417,4.33917 -6.87917,6.508754 -4.445,2.169585 -10.53042,2.169585 H 133.72615 V 47.892297 h 12.48834 q 8.89,0 13.86417,4.709586 5.02709,4.65667 5.02709,13.546675 z m -8.46667,0.3175 q 0,-6.08542 -2.69876,-8.995838 -2.69875,-2.963335 -7.9375,-2.963335 h -4.18042 v 24.500431 h 3.38667 q 11.43001,0 11.43001,-12.541258 z" />
    </g>
  </g>
</svg>
